<svg width="9" height="10" viewBox="0 0 9 10" fill="none" xmlns="http://www.w3.org/2000/svg">
    <path
        d="M8.76969 4.6969L0.695366 0.654292C0.632081 0.6226 0.560998 0.609902 0.490673 0.617727C0.420349 0.625551 0.353783 0.653564 0.298989 0.698393C0.246662 0.742308 0.207605 0.799968 0.186209 0.864891C0.164813 0.929815 0.161927 0.999427 0.177875 1.0659L1.15046 4.65648L5.3014 4.65648V5.3915L1.15046 5.3915L0.163194 8.97105C0.148229 9.02656 0.146483 9.08482 0.158094 9.14113C0.169705 9.19745 0.194351 9.25025 0.230049 9.29529C0.265747 9.34033 0.311501 9.37635 0.363633 9.40046C0.415765 9.42457 0.472819 9.4361 0.530209 9.43411C0.587662 9.43377 0.644232 9.41992 0.695366 9.39368L8.76969 5.35107C8.82981 5.32023 8.88026 5.27338 8.91549 5.21567C8.95072 5.15795 8.96936 5.09163 8.96936 5.02399C8.96936 4.95635 8.95072 4.89002 8.91549 4.83231C8.88026 4.7746 8.82981 4.72774 8.76969 4.6969V4.6969Z"
        fill="#FEFEFF"/>
</svg>
